<?xml version="1.0" encoding="UTF-8"?>
<svg id="Layer_1" data-name="Layer 1" xmlns="http://www.w3.org/2000/svg" xmlns:xlink="http://www.w3.org/1999/xlink" viewBox="0 0 1444 329.96">
  <defs>
    <style>
      .cls-1 {
        font-family: CenturyGothic-BoldItalic, 'Century Gothic';
        font-size: 193.07px;
        letter-spacing: .01em;
      }

      .cls-1, .cls-2 {
        font-style: italic;
        font-weight: 700;
      }

      .cls-1, .cls-3 {
        fill: #fff;
      }

      .cls-4 {
        fill: none;
        stroke: #000;
        stroke-miterlimit: 10;
        stroke-width: 11px;
      }

      .cls-5 {
        fill: url(#linear-gradient);
      }

      .cls-5, .cls-6, .cls-3, .cls-7, .cls-8 {
        stroke-width: 0px;
      }

      .cls-2 {
        font-family: Consolas-BoldItalic, Consolas;
        font-size: 241px;
      }

      .cls-6 {
        fill: url(#linear-gradient-3);
      }

      .cls-6, .cls-7, .cls-8 {
        fill-rule: evenodd;
      }

      .cls-7 {
        fill: url(#linear-gradient-2);
      }

      .cls-8 {
        fill: url(#linear-gradient-4);
      }
    </style>
    <linearGradient id="linear-gradient" x1="1439.05" y1="179.07" x2="716.94" y2="179.07" gradientUnits="userSpaceOnUse">
      <stop offset="0" stop-color="#184a78"/>
      <stop offset=".04" stop-color="#215589"/>
      <stop offset=".15" stop-color="#366db0"/>
      <stop offset=".24" stop-color="#437cc8"/>
      <stop offset=".29" stop-color="#4882d1"/>
      <stop offset=".41" stop-color="#439edf"/>
      <stop offset=".55" stop-color="#3fb9ed"/>
      <stop offset=".7" stop-color="#3cccf7"/>
      <stop offset=".84" stop-color="#3ad8fd"/>
      <stop offset="1" stop-color="#3adcff"/>
    </linearGradient>
    <linearGradient id="linear-gradient-2" x1="1" y1="119.38" x2="58.64" y2="119.38" gradientUnits="userSpaceOnUse">
      <stop offset="0" stop-color="#184a60"/>
      <stop offset=".16" stop-color="#295b89"/>
      <stop offset=".34" stop-color="#3a6cb0"/>
      <stop offset=".48" stop-color="#4476c8"/>
      <stop offset=".57" stop-color="#487ad1"/>
      <stop offset=".64" stop-color="#4683d5"/>
      <stop offset=".77" stop-color="#429de1"/>
      <stop offset=".93" stop-color="#3cc7f5"/>
      <stop offset="1" stop-color="#3adcff"/>
    </linearGradient>
    <linearGradient id="linear-gradient-3" x1="69.55" y1="54.23" x2="167" y2="54.23" xlink:href="#linear-gradient-2"/>
    <linearGradient id="linear-gradient-4" x1="0" y1="28.82" x2="57.64" y2="28.82" xlink:href="#linear-gradient-2"/>
  </defs>
  <line class="cls-4" x1="117" y1="37.57" x2="658" y2="37.57"/>
  <rect class="cls-3" x="740" y="68.07" width="674" height="229"/>
  <line class="cls-4" x1="117" y1="321.57" x2="658" y2="321.57"/>
  <text class="cls-2" transform="translate(109 267.94)"><tspan x="0" y="0">EDIT</tspan></text>
  <rect class="cls-5" x="712" y="31.07" width="732" height="296"/>
  <text class="cls-1" transform="translate(765.59 249.87) scale(.92 1)"><tspan x="0" y="0">MAGIC</tspan></text>
  <g>
    <path class="cls-7" d="M35.16,93.73l6.33,11.57c.56,1.02,1.4,1.86,2.42,2.42l11.57,6.33c4.22,2.31,4.22,8.37,0,10.68l-11.57,6.33c-1.02.56-1.86,1.4-2.42,2.42l-6.33,11.57c-2.31,4.22-8.37,4.22-10.68,0l-6.33-11.57c-.56-1.02-1.4-1.86-2.42-2.42l-11.57-6.33c-4.22-2.31-4.22-8.37,0-10.68l11.57-6.33c1.02-.56,1.86-1.4,2.42-2.42l6.33-11.57c2.31-4.22,8.37-4.22,10.68,0Z"/>
    <path class="cls-6" d="M127.3,6.99l10.7,21.3c.94,1.88,2.36,3.43,4.09,4.46l19.56,11.65c7.14,4.25,7.14,15.42,0,19.67l-19.56,11.65c-1.73,1.03-3.15,2.57-4.09,4.46l-10.7,21.3c-3.9,7.77-14.15,7.77-18.06,0l-10.7-21.3c-.94-1.88-2.36-3.43-4.09-4.46l-19.56-11.65c-7.14-4.25-7.14-15.42,0-19.67l19.56-11.65c1.73-1.03,3.15-2.57,4.09-4.46l10.7-21.3c3.9-7.77,14.15-7.77,18.06,0Z"/>
    <path class="cls-8" d="M34.16,3.17l6.33,11.57c.56,1.02,1.4,1.86,2.42,2.42l11.57,6.33c4.22,2.31,4.22,8.37,0,10.68l-11.57,6.33c-1.02.56-1.86,1.4-2.42,2.42l-6.33,11.57c-2.31,4.22-8.37,4.22-10.68,0l-6.33-11.57c-.56-1.02-1.4-1.86-2.42-2.42l-11.57-6.33c-4.22-2.31-4.22-8.37,0-10.68l11.57-6.33c1.02-.56,1.86-1.4,2.42-2.42l6.33-11.57c2.31-4.22,8.37-4.22,10.68,0Z"/>
  </g>
</svg>